<svg id="Capa_1" enable-background="new 0 0 512 512" height="512" viewBox="0 0 512 512" width="512" xmlns="http://www.w3.org/2000/svg"><g><g><path d="m474.5 476h-437c-16.569 0-30-13.431-30-30v-30l248.5-40 248.5 40v30c0 16.569-13.431 30-30 30z" fill="#fbf1cf"/></g><g><path d="m107.5 446v-46.097l-100 16.097v30c0 16.569 13.431 30 30 30h100c-16.569 0-30-13.431-30-30z" fill="#fae0bd"/></g><g><path d="m464.5 346h-417v-270c0-22.091 17.909-40 40-40h337c22.091 0 40 17.909 40 40z" fill="#6e768f"/></g><g><path d="m147.5 336c-11.046 0-20-8.954-20-20s8.954-20 20-20v-220c-11.046 0-20-8.954-20-20s8.954-20 20-20h-60c-22.091 0-40 17.909-40 40v270h100z" fill="#565e75"/></g><g><path d="m146 17.5h220v337h-220z" fill="#ceeafb" transform="matrix(0 1 -1 0 442 -70)"/></g><g><path d="m87.5 76h60v220h-60z" fill="#a3defe"/></g><g><path d="m504.5 416h-497l40-80h417z" fill="#fae0bd"/></g><g><path d="m47.5 336-40 80h100l40-80z" fill="#f8c7a5"/></g><g><path d="m201.972 387.056-14.472 28.944h137l-14.472-28.944c-3.388-6.776-10.313-11.056-17.889-11.056h-72.279c-7.575 0-14.5 4.28-17.888 11.056z" fill="#6e768f"/></g><g><path d="m259.861 376h-40c-7.575 0-14.501 4.28-17.889 11.056l-14.472 28.944h40l14.472-28.944c3.388-6.776 10.313-11.056 17.889-11.056z" fill="#565e75"/></g><g><g><g><ellipse cx="172.435" cy="164.22" fill="#e68a97" rx="30.834" ry="24.555"/></g><g><ellipse cx="339.565" cy="164.22" fill="#e68a97" rx="30.834" ry="24.555"/></g></g><g><path d="m190.405 147.781c-4.142 0-7.5-3.357-7.5-7.5v-12c0-4.143 3.358-7.5 7.5-7.5s7.5 3.357 7.5 7.5v12c0 4.143-3.358 7.5-7.5 7.5z"/></g><g><path d="m256 155.587c-8.795 0-17.16-3.81-22.948-10.451-2.721-3.123-2.396-7.86.727-10.582 3.123-2.721 7.86-2.396 10.582.727 2.939 3.372 7.181 5.307 11.64 5.307 4.458 0 8.701-1.935 11.64-5.307 2.72-3.122 7.458-3.447 10.582-.727 3.122 2.722 3.448 7.459.727 10.582-5.79 6.641-14.154 10.451-22.95 10.451z"/></g><g><path d="m337.818 147.446c-4.143 0-7.5-3.357-7.5-7.5 0-3.532-2.874-6.406-6.406-6.406s-6.406 2.874-6.406 6.406c0 4.143-3.357 7.5-7.5 7.5s-7.5-3.357-7.5-7.5c0-11.804 9.603-21.406 21.406-21.406s21.406 9.603 21.406 21.406c0 4.143-3.357 7.5-7.5 7.5z"/></g></g><g><path d="m432 296v-220c0-4.143-3.357-7.5-7.5-7.5h-219.095c-4.142 0-7.5 3.357-7.5 7.5s3.358 7.5 7.5 7.5h211.595v205h-322v-205h80.405c4.142 0 7.5-3.357 7.5-7.5s-3.358-7.5-7.5-7.5h-87.905c-4.142 0-7.5 3.357-7.5 7.5v220c0 4.143 3.358 7.5 7.5 7.5h337c4.143 0 7.5-3.357 7.5-7.5z"/><path d="m511.208 412.646-39.208-78.417v-258.229c0-26.191-21.309-47.5-47.5-47.5h-337c-26.191 0-47.5 21.309-47.5 47.5v258.229l-39.208 78.417c-.521 1.042-.792 2.19-.792 3.354v30c0 20.678 16.822 37.5 37.5 37.5h437c20.678 0 37.5-16.822 37.5-37.5v-30c0-1.164-.271-2.312-.792-3.354zm-459.073-69.146h287.43c4.143 0 7.5-3.357 7.5-7.5s-3.357-7.5-7.5-7.5h-284.565v-252.5c0-17.921 14.58-32.5 32.5-32.5h337c17.921 0 32.5 14.579 32.5 32.5v252.5h-87.435c-4.143 0-7.5 3.357-7.5 7.5s3.357 7.5 7.5 7.5h90.299l32.5 65h-163.23l-12.399-24.799c-4.689-9.377-14.114-15.201-24.597-15.201h-72.279c-10.483 0-19.909 5.825-24.597 15.201l-12.397 24.799h-163.23zm260.23 65h-112.73l9.045-18.09c2.131-4.263 6.416-6.91 11.181-6.91h72.279c4.765 0 9.049 2.648 11.181 6.91zm162.135 60h-437c-12.407 0-22.5-10.094-22.5-22.5v-22.5h309.478c.01 0 .019.002.028.002.011 0 .023-.002.034-.002h172.46v22.5c0 12.406-10.094 22.5-22.5 22.5z"/></g></g></svg>